<svg xmlns="http://www.w3.org/2000/svg" xmlns:xlink="http://www.w3.org/1999/xlink" width="500" zoomAndPan="magnify" viewBox="0 0 375 374.999991" height="500" preserveAspectRatio="xMidYMid meet" version="1.0"><defs><clipPath id="a8656318ec"><path d="M 184 190 L 250 190 L 250 256.03125 L 184 256.03125 Z M 184 190 " clip-rule="nonzero"/></clipPath><clipPath id="696369a6df"><path d="M 112.5 119 L 191 119 L 191 197 L 112.5 197 Z M 112.5 119 " clip-rule="nonzero"/></clipPath><clipPath id="14f87d9f3d"><path d="M 125 119 L 262 119 L 262 256.03125 L 125 256.03125 Z M 125 119 " clip-rule="nonzero"/></clipPath><clipPath id="b53da576e5"><path d="M 63.742188 46 L 311.242188 46 L 311.242188 305.859375 L 63.742188 305.859375 Z M 63.742188 46 " clip-rule="nonzero"/></clipPath></defs><g clip-path="url(#a8656318ec)"><path fill="#000000" d="M 233.394531 256.03125 C 228.703125 256.03125 224.308594 253.992188 221.320312 250.453125 L 184.855469 209.453125 C 183.714844 208.167969 183.835938 206.226562 185.125 205.085938 C 186.386719 203.945312 188.355469 204.066406 189.519531 205.328125 L 226.03125 246.398438 C 229.53125 250.546875 236.527344 250.742188 240.269531 247.007812 C 242.164062 245.113281 243.160156 242.710938 243.160156 240.070312 C 243.160156 237.277344 241.921875 234.585938 239.757812 232.742188 L 197.757812 195.503906 C 196.46875 194.363281 196.347656 192.398438 197.488281 191.113281 C 198.628906 189.828125 200.597656 189.707031 201.886719 190.871094 L 243.863281 228.058594 C 247.363281 231.066406 249.378906 235.460938 249.378906 240.070312 C 249.378906 244.339844 247.703125 248.367188 244.664062 251.398438 C 241.726562 254.332031 237.621094 256.03125 233.394531 256.03125 " fill-opacity="1" fill-rule="nonzero"/></g><g clip-path="url(#696369a6df)"><path fill="#000000" d="M 174.507812 196.28125 C 173.632812 196.28125 172.785156 195.941406 172.175781 195.238281 L 161.609375 183.324219 C 160.976562 182.597656 160.152344 182.234375 159.15625 182.308594 C 146.207031 182.984375 135.519531 179.492188 127.429688 171.828125 C 112.976562 158.144531 112.5625 137.183594 112.5625 136.992188 C 112.5625 130.707031 114.992188 126.144531 117.25 123.988281 C 119.316406 121.828125 123.882812 119.402344 130.175781 119.402344 C 130.367188 119.402344 151.359375 119.816406 165.058594 134.25 C 172.734375 142.328125 176.257812 152.976562 175.554688 165.90625 C 175.480469 166.902344 175.84375 167.777344 176.597656 168.480469 L 189.253906 179.6875 C 190.542969 180.828125 190.664062 182.792969 189.519531 184.054688 C 188.378906 185.339844 186.386719 185.460938 185.125 184.320312 L 172.445312 173.089844 C 170.28125 171.125 169.164062 168.382812 169.359375 165.519531 C 169.964844 154.410156 167 145.3125 160.539062 138.519531 C 148.832031 126.171875 130.34375 125.613281 130.175781 125.613281 C 125.535156 125.613281 122.644531 127.359375 121.648438 128.378906 C 120.53125 129.46875 118.78125 132.355469 118.78125 136.992188 C 118.78125 137.160156 119.339844 155.621094 131.703125 167.316406 C 138.53125 173.769531 147.640625 176.726562 158.792969 176.121094 C 161.65625 175.855469 164.378906 177.042969 166.273438 179.226562 L 176.839844 191.113281 C 177.980469 192.398438 177.835938 194.363281 176.574219 195.503906 C 175.964844 196.039062 175.238281 196.28125 174.507812 196.28125 " fill-opacity="1" fill-rule="nonzero"/></g><path fill="#000000" d="M 218.890625 156.375 C 218.039062 156.375 217.214844 156.035156 216.605469 155.355469 C 215.441406 154.09375 215.515625 152.128906 216.800781 150.964844 L 242.917969 127.066406 C 244.179688 125.902344 246.148438 125.976562 247.289062 127.261719 C 248.453125 128.523438 248.382812 130.488281 247.117188 131.628906 L 221.003906 155.546875 C 220.398438 156.082031 219.644531 156.375 218.890625 156.375 " fill-opacity="1" fill-rule="nonzero"/><path fill="#000000" d="M 227.925781 165.375 C 227.175781 165.375 226.421875 165.105469 225.8125 164.574219 C 224.550781 163.410156 224.476562 161.445312 225.621094 160.183594 L 249.574219 134.101562 C 250.738281 132.84375 252.707031 132.746094 253.96875 133.910156 C 255.234375 135.074219 255.304688 137.039062 254.164062 138.300781 L 230.210938 164.378906 C 229.605469 165.035156 228.753906 165.375 227.925781 165.375 " fill-opacity="1" fill-rule="nonzero"/><g clip-path="url(#14f87d9f3d)"><path fill="#000000" d="M 237.886719 126.632812 L 211.75 146.71875 C 209.171875 148.683594 207.449219 151.691406 207.058594 154.917969 L 205.578125 166.730469 C 205.285156 168.988281 204.195312 171.050781 202.492188 172.554688 L 134.644531 232.742188 C 132.457031 234.585938 131.21875 237.253906 131.21875 240.09375 C 131.21875 245.453125 135.589844 249.820312 140.960938 249.820312 C 143.800781 249.820312 146.476562 248.582031 148.296875 246.449219 L 208.589844 178.644531 C 210.097656 176.945312 212.160156 175.855469 214.421875 175.5625 L 226.25 174.105469 C 229.480469 173.695312 232.496094 171.972656 234.488281 169.402344 L 254.578125 143.296875 Z M 140.960938 256.03125 C 132.167969 256.03125 125 248.875 125 240.09375 C 125 235.433594 127.015625 231.042969 130.5625 228.035156 L 198.386719 167.898438 C 198.945312 167.410156 199.3125 166.730469 199.40625 165.980469 L 200.890625 154.140625 C 201.496094 149.289062 204.074219 144.777344 207.960938 141.769531 L 236.261719 120.03125 C 237.5 119.085938 239.246094 119.207031 240.367188 120.324219 L 260.917969 140.847656 C 262.011719 141.9375 262.132812 143.6875 261.183594 144.921875 L 239.417969 173.183594 C 236.40625 177.066406 231.910156 179.636719 227.027344 180.269531 L 215.199219 181.726562 C 214.445312 181.820312 213.742188 182.1875 213.253906 182.769531 L 152.984375 250.523438 C 150.019531 253.992188 145.625 256.03125 140.960938 256.03125 " fill-opacity="1" fill-rule="nonzero"/></g><g clip-path="url(#b53da576e5)"><path fill="#000000" d="M 111.917969 84.175781 C 82.621094 106.8125 63.742188 142.285156 63.742188 182.132812 C 63.742188 250.417969 119.191406 305.859375 187.492188 305.859375 C 255.792969 305.859375 311.242188 250.417969 311.242188 182.132812 C 311.242188 143.46875 293.464844 108.921875 265.625 86.25 C 265.511719 76.753906 259.640625 65.574219 249.34375 57.101562 C 234.113281 44.574219 214.933594 42.679688 206.542969 52.878906 C 198.148438 63.078125 203.699219 81.53125 218.929688 94.058594 C 229.625 102.859375 242.269531 106.410156 251.75 104.199219 C 274.222656 122.722656 288.546875 150.769531 288.546875 182.132812 C 288.546875 237.894531 243.265625 283.164062 187.492188 283.164062 C 131.722656 283.164062 86.441406 237.894531 86.441406 182.132812 C 86.441406 150.1875 101.296875 121.6875 124.46875 103.160156 C 128.171875 104.136719 134.386719 102.703125 138.664062 99.828125 L 176.675781 74.28125 C 178.164062 73.28125 178.742188 71.453125 177.96875 70.199219 C 177.195312 68.949219 175.371094 68.757812 173.898438 69.777344 L 141.046875 92.453125 C 139.570312 93.46875 137.894531 93.574219 137.304688 92.683594 C 136.714844 91.796875 137.449219 90.269531 138.941406 89.28125 L 172.183594 67.246094 C 173.675781 66.257812 174.261719 64.433594 173.484375 63.179688 C 172.707031 61.925781 170.867188 61.710938 169.375 62.699219 L 135.988281 84.828125 C 134.496094 85.816406 132.640625 85.648438 131.847656 84.449219 C 131.050781 83.253906 131.617188 81.476562 133.113281 80.488281 L 166.496094 58.359375 C 167.988281 57.371094 168.542969 55.574219 167.730469 54.347656 C 166.917969 53.125 165.046875 52.933594 163.554688 53.921875 L 130.171875 76.050781 C 128.675781 77.042969 127.011719 77.164062 126.457031 76.320312 C 125.898438 75.480469 126.65625 73.996094 128.152344 73.007812 L 161.273438 51.050781 C 162.765625 50.0625 163.421875 48.347656 162.738281 47.230469 C 162.050781 46.109375 160.285156 46.003906 158.789062 46.992188 L 120.472656 72.390625 C 116.195312 75.226562 112.484375 80.386719 111.917969 84.175781 Z M 111.917969 84.175781 " fill-opacity="1" fill-rule="nonzero"/></g></svg>